<svg width="242" height="50" viewBox="0 0 242 50" fill="none" xmlns="http://www.w3.org/2000/svg">
<g clip-path="url(#clip0_111_28174)">
<path d="M10.3 16C6.99998 16 4.29998 13.7 4.19998 13.6C3.99998 13.4 3.89998 13 4.09998 12.8C4.29998 12.6 4.69998 12.5 4.89998 12.7C4.89998 12.7 8.89998 16.2 12.7 14.2C15.6 12.7 14.9 10.1 14.1 7.39998C13.5 5.29998 12.9 3.09998 14.3 1.59998C15 0.799978 15.9 0.399978 16.9 0.599978C20.1 0.999978 23 6.29998 23.4 6.89998C23.6 7.19998 23.5 7.59998 23.2 7.69998C22.9 7.89998 22.5 7.79998 22.4 7.49998C21.6 5.99998 19 1.99998 16.9 1.79998C16.3 1.69998 15.8 1.89998 15.3 2.49998C14.4 3.49998 14.9 5.29998 15.4 7.09998C16.2 9.89998 17.1 13.4 13.3 15.3C12.3 15.8 11.2 16 10.3 16Z" fill="#00604C"/>
<path d="M22.4001 5.79999C22.1001 6.09999 22.7001 9.79999 20.5001 12.4C14.8001 19.3 4.70007 21.5 3.80007 31.4C3.00007 40.6 11.7001 48.2 26.2001 48.2C40.8001 48.2 52.6001 40.8 52.6001 31.7C52.6001 17 22.7001 5.49999 22.4001 5.79999Z" fill="#8FC78F"/>
<path d="M45.3999 38.2C45.4999 41.5 37.7999 45.1 28.0999 45.6C18.3999 46 10.2999 43.1 10.1999 39.8C10.0999 36.5 17.7999 33.5 27.5999 33.1C37.3999 32.7 45.2999 35 45.3999 38.2Z" fill="#5BB684"/>
<path d="M45.2001 38.8C45.0001 38.8 44.8001 38.7 44.7001 38.6C44.4001 38.3 44.4001 37.8 44.7001 37.5C49.3001 32.6 46.1001 27.7 46.1001 27.7C45.9001 27.3 46.0001 26.8 46.3001 26.6C46.7001 26.4 47.2001 26.5 47.4001 26.8C47.4001 26.9 51.3001 32.8 45.9001 38.6C45.6001 38.7 45.4001 38.8 45.2001 38.8Z" fill="#BCDEBC"/>
<path d="M40.7999 43.5C40.4999 43.5 40.1999 43.3 40.0999 43C39.8999 42.6 40.0999 42.1 40.4999 41.9C41.7999 41.4 42.5999 40.3 42.5999 40.3C42.8999 40 43.3999 39.9 43.6999 40.2C43.9999 40.5 44.0999 41 43.7999 41.3C43.7999 41.4 42.6999 42.7 40.9999 43.4C40.9999 43.5 40.8999 43.5 40.7999 43.5Z" fill="#BCDEBC"/>
<path d="M3.80005 15.3C5.73305 15.3 7.30005 13.733 7.30005 11.8C7.30005 9.86699 5.73305 8.29999 3.80005 8.29999C1.86705 8.29999 0.300049 9.86699 0.300049 11.8C0.300049 13.733 1.86705 15.3 3.80005 15.3Z" fill="#8FC78F"/>
<path d="M3.79995 14.5C4.95975 14.5 5.89995 13.6941 5.89995 12.7C5.89995 11.7059 4.95975 10.9 3.79995 10.9C2.64015 10.9 1.69995 11.7059 1.69995 12.7C1.69995 13.6941 2.64015 14.5 3.79995 14.5Z" fill="#5BB684"/>
<path d="M3.5 11.1C4.05228 11.1 4.5 10.6523 4.5 10.1C4.5 9.54769 4.05228 9.09998 3.5 9.09998C2.94772 9.09998 2.5 9.54769 2.5 10.1C2.5 10.6523 2.94772 11.1 3.5 11.1Z" fill="#BCDEBC"/>
<path d="M4.80005 14.2C4.60005 14.2 4.50005 14.1 4.40005 13.9C4.30005 13.7 4.40005 13.5 4.70005 13.4C5.90005 13 5.50005 11.3 5.50005 11.2C5.40005 11 5.60005 10.8 5.80005 10.7C6.00005 10.6 6.20005 10.8 6.30005 11C6.50005 11.9 6.60005 13.7 5.00005 14.2C4.90005 14.2 4.80005 14.2 4.80005 14.2Z" fill="#BCDEBC"/>
<path d="M18.7 30.1C20.5778 30.1 22.1 29.2941 22.1 28.3C22.1 27.3059 20.5778 26.5 18.7 26.5C16.8223 26.5 15.3 27.3059 15.3 28.3C15.3 29.2941 16.8223 30.1 18.7 30.1Z" fill="#BCDEBC"/>
<path d="M42.126 25.9312C43.4775 25.3011 44.2514 24.1004 43.8546 23.2495C43.4579 22.3986 42.0406 22.2197 40.6892 22.8498C39.3378 23.48 38.5638 24.6806 38.9606 25.5316C39.3574 26.3825 40.7746 26.5614 42.126 25.9312Z" fill="#BCDEBC"/>
<path d="M23.575 27.5082C25.1538 27.0057 25.9041 24.9344 25.2509 22.882C24.5976 20.8295 22.7881 19.573 21.2093 20.0756C19.6305 20.5781 18.8802 22.6493 19.5335 24.7018C20.1867 26.7542 21.9962 28.0107 23.575 27.5082Z" fill="#00604C"/>
<path d="M22.8002 23.2999L24.7002 23.4999L23.0002 24.2999L22.8002 26.0999L21.9002 24.3999L20.0002 24.1999L21.7002 23.3999L21.9002 21.4999L22.8002 23.2999Z" fill="white"/>
<path d="M39.6994 24.1688C41.0337 23.814 41.7128 22.0122 41.2163 20.1441C40.7197 18.2761 39.2354 17.0492 37.9011 17.404C36.5668 17.7587 35.8877 19.5606 36.3843 21.4286C36.8808 23.2967 38.3651 24.5235 39.6994 24.1688Z" fill="#00604C"/>
<path d="M39.2001 20.3L40.8 20.5L39.3 21.2L39.1 22.8L38.4001 21.3L36.8 21.1L38.2001 20.4L38.4001 18.8L39.2001 20.3Z" fill="white"/>
<path d="M31.8001 25L30.8001 26.5L29.4001 26.8L29.6001 29.5L30.5001 32.8L32.1001 34.8L33.0001 35.3L34.0001 34.7L35.1001 32.4V28.4L34.6001 26.2L34.1001 25.8L32.8001 26.2L31.8001 25Z" fill="#EE776E"/>
<path d="M29.4001 27.7C29.4001 27.7 33.9001 27.6 35.2001 30.5L34.8001 27L33.9001 26.2L31.9001 25.4L29.6001 26.9L29.4001 27.7Z" fill="#002A1E"/>
<path d="M33.0001 35.6C32.6001 35.6 32.2001 35.4 31.8001 35.2C30.6001 34.3 29.6001 32.2 29.2001 29.6C29.0001 28.4 29.0001 27.8 29.1001 26.8C29.1001 26.6 29.3001 26.4 29.5001 26.4C29.7001 26.4 29.9001 26.6 29.9001 26.8C29.8001 27.7 29.8001 28.3 30.0001 29.4C30.3001 31.7 31.2001 33.7 32.3001 34.5C32.6001 34.7 32.9001 34.8 33.2001 34.8C34.3001 34.6 35.2001 32 34.7001 28.6C34.5001 27.5 34.3001 27 34.0001 26.2C33.9001 26 34.0001 25.8 34.2001 25.7C34.4001 25.6 34.6001 25.7 34.7001 25.9C35.1001 26.8 35.3001 27.4 35.5001 28.5C36.0001 32.2 35.1001 35.3 33.3001 35.6C33.2001 35.6 33.1001 35.6 33.0001 35.6Z" fill="#00604C"/>
<path d="M29.8001 27.2C29.7001 27.2 29.6001 27.2 29.5001 27.2C27.9001 27 27.6001 26.1 27.6001 26C27.5001 25.8 27.7001 25.6 27.9001 25.5C28.1001 25.4 28.3001 25.6 28.4001 25.8C28.4001 25.8 28.6001 26.3 29.6001 26.4C30.1001 26.5 30.4001 26.2 30.6001 26C31.0001 25.6 31.2001 24.9 31.1001 24.3C31.1001 24.1 31.2001 23.9 31.4001 23.8C31.6001 23.8 31.8001 23.9 31.9001 24.1C32.0001 24.9 31.7001 25.8 31.1001 26.4C30.8001 26.9 30.3001 27.2 29.8001 27.2Z" fill="#00604C"/>
<path d="M34.1001 26.4C33.5001 26.4 33.0001 26.3 32.4001 26C31.7001 25.6 31.2001 25 31.1001 24.3C31.1001 24.1 31.2001 23.9 31.4001 23.8C31.6001 23.8 31.8001 23.9 31.9001 24.1C32.0001 24.7 32.5001 25 32.8001 25.2C33.3001 25.5 33.9001 25.6 34.4001 25.5C34.9001 25.4 35.2001 25 35.2001 24.6C35.2001 24.2 34.8001 24 34.5001 24C34.3001 24 34.1001 23.8 34.2001 23.5C34.2001 23.3 34.4001 23.1 34.7001 23.2C35.7001 23.4 36.0001 24 36.0001 24.6C36.0001 25.4 35.3001 26.2 34.5001 26.3C34.4001 26.4 34.3001 26.4 34.1001 26.4Z" fill="#00604C"/>
<path d="M86.9001 20.2999C84.3001 20.2999 82.0001 21.4 80.3001 23.2C78.7001 21.4 76.3001 20.2999 73.7001 20.2999C71.7001 20.2999 69.8001 21 68.3001 22.1C67.2001 20.7 65.5001 19.7 63.5001 19.7C62.2001 19.7 61.1001 20.8 61.1001 22.1C61.1001 23.4 62.2001 24.5 63.5001 24.5C64.2001 24.5 64.8001 25.0999 64.8001 25.7999V29.2V38.5V38.7C64.8001 40 65.9001 41.0999 67.2001 41.0999C68.5001 41.0999 69.6001 40 69.6001 38.7V38.5V29.2C69.6001 26.9 71.5001 25 73.8001 25C76.1001 25 78.0001 26.9999 78.0001 29.2999V38.7999C78.0001 40.0999 79.1001 41.2 80.4001 41.2C81.7001 41.2 82.8001 40.0999 82.8001 38.7999V29.2999C82.8001 26.9999 84.7001 25.1 87.0001 25.1C89.3001 25.1 91.2001 26.9999 91.2001 29.2999V38.7999C91.2001 40.0999 92.3001 41.2 93.6001 41.2C94.9001 41.2 96.0001 40.0999 96.0001 38.7999V29.2999C95.9001 24.2999 91.9001 20.2999 86.9001 20.2999Z" fill="white"/>
<path d="M155 35.2C154.3 35.2 153.7 34.6 153.7 33.9V15C153.7 13.7 152.6 12.6 151.3 12.6C150 12.6 148.9 13.7 148.9 15V34C148.9 37.3 151.6 40 154.9 40C156.2 40 157.3 38.9 157.3 37.6C157.4 36.3 156.3 35.2 155 35.2Z" fill="white"/>
<path d="M120.4 35.9C119.7 35.9 119.1 35.3 119.1 34.6V20.9C119.1 19.5 118 18.3 116.5 18.3C115 18.3 113.9 19.4 113.9 20.9V22C112.4 21.2 110.8 20.7 109 20.7C103.5 20.7 99 25.2 99 30.7C99 36.2 103.5 40.7 109 40.7C111.4 40.7 113.6 39.9 115.3 38.5C116.5 40 118.3 41 120.4 41C121.8 41 123 39.9 123 38.4C123 36.9 121.8 35.9 120.4 35.9ZM109 35.6C106.3 35.6 104.1 33.4 104.1 30.7C104.1 28 106.3 25.8 109 25.8C111.7 25.8 113.9 28 113.9 30.7C114 33.4 111.8 35.6 109 35.6Z" fill="white"/>
<path d="M136 19.3C134.2 19.3 132.6 19.8 131.1 20.6V19.5C131.1 18.1 130 17 128.6 17C127.2 17 126.1 18.1 126.1 19.5V46.9C126.1 48.3 127.2 49.4 128.6 49.4C130 49.4 131.1 48.3 131.1 46.9V37.9C132.5 38.7 134.2 39.2 136 39.2C141.5 39.2 145.9 34.7 145.9 29.3C145.9 23.9 141.4 19.3 136 19.3ZM136 34.1C133.3 34.1 131.1 31.9 131.1 29.2C131.1 26.5 133.3 24.3 136 24.3C138.7 24.3 140.9 26.5 140.9 29.2C140.9 31.9 138.7 34.1 136 34.1Z" fill="white"/>
<path d="M179.3 30.3C178 29.7 176.4 30.2 175.8 31.6C175.5 32.3 174.4 34.5 169.8 34.5C168.4 34.5 167.1 33.9 166.2 33L177.6 27.8C178.2 27.5 178.6 27 178.7 26.5C179 25.7 179 24.8 178.6 24C176.7 20.9 173.4 19 169.8 19C164.1 19 159.5 23.6 159.5 29.3C159.5 35 164.1 39.6 169.8 39.6C176.4 39.6 179.3 36.4 180.6 33.6C181.1 32.5 180.6 30.9 179.3 30.3ZM169.8 24.3C170.9 24.3 172 24.7 172.9 25.3L164.7 29C164.8 26.4 167.1 24.3 169.8 24.3Z" fill="white"/>
<path d="M186.2 41.4C187.526 41.4 188.6 40.3255 188.6 39C188.6 37.6745 187.526 36.6 186.2 36.6C184.875 36.6 183.8 37.6745 183.8 39C183.8 40.3255 184.875 41.4 186.2 41.4Z" fill="white"/>
<path d="M212.3 26.2H204.8C203.3 26.2 202.1 27.4 202.1 28.9C202.1 30.4 203.3 31.6 204.8 31.6H209.6C208.3 33.4 206.2 34.5 204 34.5C200.2 34.5 197.1 31.4 197.1 27.6C197.1 23.8 200.2 20.7 204 20.7C206.1 20.7 208 21.6 209.4 23.3C210.3 24.4 212 24.6 213.2 23.7C214.3 22.8 214.5 21.1 213.6 19.9C211.3 17 207.8 15.4 204.1 15.4C197.4 15.4 191.9 20.9 191.9 27.6C191.9 34.3 197.4 39.8 204.1 39.8C206.2 39.8 208.2 39.2 210 38.3C210.4 39.2 211.3 39.9 212.4 39.9C213.9 39.9 215.1 38.7 215.1 37.2V29C215 27.4 213.8 26.2 212.3 26.2Z" fill="white"/>
<path d="M239 26.2H231.5C230 26.2 228.8 27.4 228.8 28.9C228.8 30.4 230 31.6 231.5 31.6H236.3C235 33.4 232.9 34.5 230.7 34.5C226.9 34.5 223.8 31.4 223.8 27.6C223.8 23.8 226.9 20.7 230.7 20.7C232.8 20.7 234.7 21.6 236.1 23.3C237 24.4 238.7 24.6 239.9 23.7C241 22.8 241.2 21.1 240.3 19.9C238 17 234.5 15.4 230.8 15.4C224.1 15.4 218.6 20.9 218.6 27.6C218.6 34.3 224.1 39.8 230.8 39.8C232.9 39.8 234.9 39.2 236.7 38.3C237.1 39.2 238 39.9 239.1 39.9C240.6 39.9 241.8 38.7 241.8 37.2V29C241.7 27.4 240.5 26.2 239 26.2Z" fill="white"/>
</g>
<defs>
<clipPath id="clip0_111_28174">
<rect width="242" height="50" fill="white"/>
</clipPath>
</defs>
</svg>
